HIERARCHY
ROOT Hips
{
	OFFSET 49.935902 -7.705354 86.399498
	CHANNELS 6 Xposition Yposition Zposition Xrotation Yrotation Zrotation
	JOINT spine
	{
		OFFSET 0.000000 -0.393701 6.846367
		CHANNELS 3 Xrotation Yrotation Zrotation
		JOINT spine1
		{
			OFFSET 0.000000 -0.000002 9.496208
			CHANNELS 3 Xrotation Yrotation Zrotation
			JOINT spine2
			{
				OFFSET 0.000000 -0.000001 9.099091
				CHANNELS 3 Xrotation Yrotation Zrotation
				JOINT Neck
				{
					OFFSET 0.000000 -1.113784 23.361198
					CHANNELS 3 Xrotation Yrotation Zrotation
					JOINT Head
					{
						OFFSET 0.000000 -0.000001 7.058014
						CHANNELS 3 Xrotation Yrotation Zrotation
						End Site
						{
							OFFSET 0.000000 5.634187 17.084396
						}
					}
				}
				JOINT RightShoulder
				{
					OFFSET -3.831360 0.533489 9.826309
					CHANNELS 3 Xrotation Yrotation Zrotation
					JOINT RightArm
					{
						OFFSET 0.000000 -0.000002 12.888100
						CHANNELS 3 Xrotation Yrotation Zrotation
						JOINT RightArmRoll
						{
							OFFSET 0.000000 -0.000001 6.506165
							CHANNELS 3 Xrotation Yrotation Zrotation
							JOINT RightForeArm
							{
								OFFSET 0.000000 -0.000003 18.950104
								CHANNELS 3 Xrotation Yrotation Zrotation
								JOINT RightForeArmRoll
								{
									OFFSET 0.000000 -0.000001 7.300919
									CHANNELS 3 Xrotation Yrotation Zrotation
									JOINT RightHand
									{
										OFFSET 0.000000 -0.000002 14.651398
										CHANNELS 3 Xrotation Yrotation Zrotation
										End Site
										{
											OFFSET 0.000000 0.000000 0.100006
										}
									}
								}
							}
						}
					}
				}
				JOINT LeftShoulder
				{
					OFFSET 3.831360 0.533489 9.826309
					CHANNELS 3 Xrotation Yrotation Zrotation
					JOINT LeftArm
					{
						OFFSET 0.000000 -0.000002 12.888100
						CHANNELS 3 Xrotation Yrotation Zrotation
						JOINT LeftArmRoll
						{
							OFFSET 0.000000 -0.000001 6.506165
							CHANNELS 3 Xrotation Yrotation Zrotation
							JOINT LeftForeArm
							{
								OFFSET 0.000000 -0.000003 18.950104
								CHANNELS 3 Xrotation Yrotation Zrotation
								JOINT LeftForeArmRoll
								{
									OFFSET 0.000000 -0.000001 7.300919
									CHANNELS 3 Xrotation Yrotation Zrotation
									JOINT LeftHand
									{
										OFFSET 0.000000 -0.000002 14.651398
										CHANNELS 3 Xrotation Yrotation Zrotation
										End Site
										{
											OFFSET 0.000000 0.000000 0.100006
										}
									}
								}
							}
						}
					}
				}
			}
		}
	}
	JOINT RightUpLeg
	{
		OFFSET -6.068371 0.933477 -1.112778
		CHANNELS 3 Xrotation Yrotation Zrotation
		JOINT RightUpLegRoll
		{
			OFFSET 0.000000 -0.000003 17.179604
			CHANNELS 3 Xrotation Yrotation Zrotation
			JOINT RightLeg
			{
				OFFSET 0.000000 0.000003 -21.274300
				CHANNELS 3 Xrotation Yrotation Zrotation
				JOINT RightLegRoll
				{
					OFFSET 0.000000 -0.000003 21.343903
					CHANNELS 3 Xrotation Yrotation Zrotation
					JOINT RightFoot
					{
						OFFSET 0.000000 -0.000003 17.765198
						CHANNELS 3 Xrotation Yrotation Zrotation
						JOINT RightToeBase
						{
							OFFSET 0.000000 -0.000002 14.850792
							CHANNELS 3 Xrotation Yrotation Zrotation
							End Site
							{
								OFFSET 0.006294 0.829004 7.192123
							}
						}
					}
				}
			}
		}
	}
	JOINT LeftUpLeg
	{
		OFFSET 6.068371 0.933477 -1.112778
		CHANNELS 3 Xrotation Yrotation Zrotation
		JOINT LeftUpLegRoll
		{
			OFFSET 0.000000 -0.000003 17.179703
			CHANNELS 3 Xrotation Yrotation Zrotation
			JOINT LeftLeg
			{
				OFFSET 0.000000 -0.000003 21.274200
				CHANNELS 3 Xrotation Yrotation Zrotation
				JOINT LeftLegRoll
				{
					OFFSET 0.000000 -0.000004 21.541206
					CHANNELS 3 Xrotation Yrotation Zrotation
					JOINT LeftFoot
					{
						OFFSET 0.000000 -0.000003 17.567902
						CHANNELS 3 Xrotation Yrotation Zrotation
						JOINT LeftToeBase
						{
							OFFSET 0.000000 -0.000002 14.850800
							CHANNELS 3 Xrotation Yrotation Zrotation
							End Site
							{
								OFFSET -0.028210 0.829003 7.192139
							}
						}
					}
				}
			}
		}
	}
}
MOTION
Frames: 11
Frame Time: 0.041667
49.492996 -6.588697 86.440201 -4.759889 0.433987 0.066306 -1.398083 -1.638913 1.696076 1.256122 -3.298958 3.365296 2.901125 -3.258438 3.404550 6.294216 19.993635 -3.676274 10.219913 -14.584824 -3.822263 -9.264999 -42.297558 -9.734355 -49.883494 -163.334699 -112.182101 0.000003 -0.000004 -0.000000 60.723428 -1.881109 6.989922 0.000004 0.000008 -3.005867 -4.999654 -7.998700 -0.000067 -23.299961 73.247222 27.108683 -59.521349 156.901180 81.087500 -0.000005 -0.000020 0.000004 58.516662 17.809189 -7.643759 0.000011 -0.000010 3.006050 -4.999876 7.998770 0.000005 -11.710697 -181.202460 -2.843602 179.999991 -0.000005 -1.433993 155.159208 -3.209561 -1.178689 0.000001 -0.000003 0.779651 73.122236 7.625069 -0.310003 25.456955 -7.355613 0.000000 -10.588404 175.151582 -1.429642 -0.000004 0.000010 -0.747365 -26.158783 1.526316 1.303689 -0.000002 -0.000000 -0.422308 74.801589 -5.803719 -4.993251 25.456957 7.355615 -0.000001 
49.490696 -6.565127 86.436996 -4.712676 0.446734 0.080755 -1.406895 -1.637537 1.690638 1.238268 -3.295782 3.353290 2.883277 -3.255404 3.392500 6.291421 19.950235 -3.673418 10.221584 -14.563548 -3.817485 -9.289571 -42.336716 -9.769572 -49.947852 -163.357129 -112.252472 0.000002 -0.000005 0.000001 60.713019 -1.981286 7.039441 0.000003 0.000007 -3.005868 -4.999653 -7.998699 -0.000065 -23.350955 73.259113 27.164154 -59.436019 156.818056 81.457546 -0.000005 -0.000020 0.000003 58.753861 17.859879 -7.740681 0.000011 -0.000009 3.006049 -4.999880 7.998768 0.000002 -11.765163 -181.214959 -2.850368 179.999991 -0.000005 -1.432996 155.160820 -3.216872 -1.178952 0.000001 -0.000003 0.778920 73.114006 7.626390 -0.313646 25.456955 -7.355614 0.000000 -10.658981 175.137949 -1.421554 -0.000005 0.000010 -0.747540 -26.177059 1.523986 1.304145 -0.000003 0.000000 -0.422168 74.797135 -5.803548 -4.994959 25.456955 7.355614 -0.000001 
49.501198 -6.574497 86.441002 -4.665050 0.459729 0.095206 -1.415786 -1.636201 1.685116 1.220266 -3.292684 3.341138 2.865279 -3.252457 3.380308 6.288150 19.906950 -3.670642 10.224580 -14.543105 -3.812602 -9.313943 -42.375378 -9.804481 -50.009750 -163.385228 -112.318226 -0.000001 -0.000005 0.000001 60.701599 -2.085964 7.090538 0.000004 0.000007 -3.005868 -4.999655 -7.998700 -0.000067 -23.407055 73.272097 27.225190 -59.351694 156.739946 81.820264 -0.000003 -0.000020 0.000005 58.985848 17.908397 -7.836014 0.000011 -0.000009 3.006050 -4.999878 7.998760 0.000005 -11.819936 -181.228415 -2.856928 179.999991 -0.000005 -1.432996 155.162705 -3.225095 -1.179629 0.000001 -0.000003 0.778165 73.105591 7.627783 -0.317566 25.456957 -7.355614 -0.000000 -10.730150 175.125326 -1.413717 -0.000007 0.000010 -0.747722 -26.195440 1.521664 1.304598 -0.000004 -0.000000 -0.422034 74.792648 -5.803328 -4.996861 25.456957 7.355615 -0.000002 
49.497196 -6.558967 86.435799 -4.617798 0.472602 0.109234 -1.424569 -1.634885 1.679588 1.202471 -3.289638 3.329012 2.847493 -3.249543 3.368151 6.284585 19.864775 -3.668033 10.228334 -14.523909 -3.807738 -9.337722 -42.412497 -9.838501 -50.068084 -163.418642 -112.376986 0.000001 -0.000006 0.000002 60.688744 -2.192712 7.142096 0.000003 0.000008 -3.005868 -4.999653 -7.998700 -0.000068 -23.468142 73.286209 27.291612 -59.268598 156.664773 82.177872 -0.000003 -0.000020 0.000004 59.213382 17.953673 -7.929676 0.000015 -0.000011 3.006050 -4.999877 7.998764 0.000003 -11.874207 -181.240900 -2.863481 179.999991 -0.000005 -1.431999 155.164604 -3.233308 -1.180287 0.000000 -0.000003 0.777406 73.097258 7.629109 -0.321299 25.456955 -7.355614 -0.000000 -10.800518 175.112704 -1.405974 -0.000005 0.000010 -0.747910 -26.213518 1.519471 1.305049 -0.000004 0.000000 -0.421907 74.788283 -5.803120 -4.998557 25.456957 7.355615 -0.000001 
49.507500 -6.577476 86.437294 -4.571696 0.484982 0.122419 -1.433082 -1.633580 1.674147 1.185230 -3.286589 3.317108 2.830257 -3.246645 3.356219 6.280899 19.824493 -3.665614 10.232321 -14.506376 -3.803012 -9.360528 -42.447184 -9.871067 -50.123111 -163.454514 -112.429797 0.000000 -0.000003 0.000000 60.673902 -2.299136 7.193098 0.000004 0.000007 -3.005867 -4.999653 -7.998702 -0.000064 -23.534124 73.301556 27.363375 -59.187100 156.590556 82.532468 -0.000004 -0.000020 0.000004 59.437180 17.994939 -8.021586 0.000014 -0.000012 3.006050 -4.999876 7.998769 0.000003 -11.927074 -181.252388 -2.869818 179.999991 -0.000005 -1.431999 155.166694 -3.240633 -1.180532 0.000001 -0.000003 0.776665 73.089035 7.630418 -0.324943 25.456957 -7.355614 0.000000 -10.868884 175.100068 -1.398369 -0.000005 0.000011 -0.748109 -26.231000 1.517520 1.305492 -0.000003 -0.000000 -0.421788 74.784028 -5.802932 -5.000152 25.456953 7.355615 -0.000000 
49.505695 -6.565527 86.433708 -4.527549 0.496493 0.134340 -1.441143 -1.632254 1.668861 1.168889 -3.283519 3.305629 2.813912 -3.243714 3.344698 6.277284 19.786691 -3.663427 10.235995 -14.490830 -3.798547 -9.381967 -42.478487 -9.901573 -50.174105 -163.491206 -112.475901 0.000000 -0.000005 0.000002 60.656690 -2.402805 7.242423 0.000004 0.000007 -3.005871 -4.999655 -7.998702 -0.000062 -23.604943 73.318249 27.440336 -59.106975 156.515670 82.885247 -0.000002 -0.000021 0.000006 59.658226 18.031119 -8.111670 0.000015 -0.000009 3.006050 -4.999877 7.998767 0.000005 -11.977736 -181.263891 -2.875512 179.999991 -0.000005 -1.431998 155.168620 -3.247952 -1.180776 0.000001 -0.000003 0.775961 73.081173 7.631568 -0.328334 25.456953 -7.355614 0.000000 -10.934022 175.088361 -1.391118 -0.000005 0.000010 -0.748315 -26.247285 1.515925 1.305917 -0.000003 -0.000000 -0.421675 74.780005 -5.802775 -5.001338 25.456957 7.355615 -0.000001 
49.498695 -6.563989 86.432091 -4.486124 0.506761 0.144580 -1.448590 -1.630890 1.663813 1.153800 -3.280397 3.294742 2.798828 -3.240718 3.333766 6.273908 19.752371 -3.661527 10.238789 -14.477892 -3.794444 -9.401629 -42.505432 -9.929442 -50.220581 -163.527815 -112.513884 0.000001 -0.000003 -0.000001 60.636384 -2.501314 7.289005 0.000004 0.000006 -3.005867 -4.999653 -7.998701 -0.000061 -23.680401 73.336315 27.522298 -59.028428 156.438011 83.238156 -0.000004 -0.000020 0.000005 59.877051 18.061428 -8.199913 0.000016 -0.000011 3.006049 -4.999878 7.998768 0.000006 -12.025300 -181.273466 -2.880758 179.999991 -0.000005 -1.431001 155.170259 -3.254347 -1.181621 0.000002 -0.000003 0.775315 73.073694 7.632588 -0.331373 25.456955 -7.355614 0.000000 -10.994517 175.078553 -1.384450 -0.000007 0.000010 -0.748535 -26.261881 1.514812 1.306322 -0.000003 0.000000 -0.421570 74.776235 -5.802735 -5.002127 25.456955 7.355614 -0.000001 
49.503098 -6.561060 86.431091 -4.448219 0.515408 0.152722 -1.455237 -1.629465 1.659090 1.140305 -3.277183 3.284635 2.785349 -3.237619 3.323631 6.270967 19.722311 -3.659958 10.240178 -14.467773 -3.790823 -9.419156 -42.527152 -9.954105 -50.262071 -163.562062 -112.543766 0.000001 -0.000005 -0.000002 60.612649 -2.592248 7.331773 0.000003 0.000008 -3.005867 -4.999656 -7.998700 -0.000060 -23.760490 73.355863 27.609274 -58.951370 156.356021 83.592322 -0.000004 -0.000020 0.000003 60.094593 18.084867 -8.286293 0.000015 -0.000010 3.006050 -4.999875 7.998769 0.000004 -12.069142 -181.281062 -2.885363 179.999991 -0.000005 -1.431002 155.171694 -3.260749 -1.182469 0.000001 -0.000003 0.774747 73.066782 7.633391 -0.333783 25.456953 -7.355614 0.000000 -11.049072 175.069647 -1.378221 -0.000005 0.000011 -0.748766 -26.274575 1.514288 1.306704 -0.000004 -0.000000 -0.421473 74.772806 -5.802746 -5.002307 25.456955 7.355614 -0.000001 
49.506096 -6.554497 86.431190 -4.414615 0.522056 0.158349 -1.460909 -1.627972 1.654767 1.128762 -3.273836 3.275519 2.773812 -3.234394 3.314473 6.268629 19.697209 -3.658749 10.239604 -14.460994 -3.787804 -9.434128 -42.542701 -9.974930 -50.298541 -163.591801 -112.565725 0.000002 -0.000006 0.000000 60.584898 -2.673188 7.369696 0.000004 0.000007 -3.005870 -4.999656 -7.998700 -0.000063 -23.844974 73.376913 27.700944 -58.876572 156.267147 83.950647 -0.000004 -0.000020 0.000004 60.311540 18.100551 -8.370546 0.000012 -0.000010 3.006049 -4.999874 7.998765 0.000004 -12.108181 -181.286744 -2.889091 179.999991 -0.000005 -1.430004 155.172568 -3.265313 -1.182520 0.000000 -0.000003 0.774278 73.060601 7.633878 -0.335489 25.456959 -7.355613 -0.000000 -11.096461 175.063554 -1.372845 -0.000006 0.000011 -0.749013 -26.284783 1.514477 1.307058 -0.000003 0.000000 -0.421383 74.769746 -5.802862 -5.001979 25.456957 7.355615 -0.000001 
49.507298 -6.552351 86.432091 -4.386093 0.526327 0.161047 -1.465453 -1.626369 1.650928 1.119523 -3.270347 3.267553 2.764568 -3.230995 3.306475 6.267076 19.677953 -3.657959 10.236524 -14.457876 -3.785511 -9.446175 -42.551095 -9.991382 -50.329253 -163.616061 -112.578333 0.000001 -0.000006 0.000002 60.552468 -2.741727 7.401655 0.000005 0.000007 -3.005867 -4.999654 -7.998701 -0.000059 -23.933707 73.399487 27.797191 -58.803503 156.170226 84.313201 -0.000003 -0.000020 0.000003 60.528788 18.107487 -8.452729 0.000014 -0.000009 3.006050 -4.999878 7.998766 0.000005 -12.141808 -181.289531 -2.891964 179.999991 -0.000005 -1.430004 155.172978 -3.268946 -1.183172 0.000001 -0.000003 0.773928 73.055382 7.633986 -0.336215 25.456957 -7.355614 0.000000 -11.135467 175.060317 -1.368361 -0.000006 0.000010 -0.749274 -26.292099 1.515484 1.307375 -0.000003 -0.000000 -0.421301 74.767171 -5.803126 -5.000847 25.456957 7.355614 -0.000001 
49.512596 -6.549198 86.429893 -4.362005 0.528577 0.161068 -1.468935 -1.624707 1.647462 1.112378 -3.266746 3.260555 2.757427 -3.227478 3.299433 6.265664 19.663370 -3.657544 10.232459 -14.458051 -3.783735 -9.456166 -42.552663 -10.004618 -50.353999 -163.639093 -112.580601 0.000002 -0.000005 -0.000000 60.513693 -2.802794 7.429876 0.000002 0.000008 -3.005868 -4.999653 -7.998702 -0.000061 -24.030764 73.424274 27.902431 -58.732346 156.068306 84.679381 -0.000001 -0.000021 0.000004 60.743994 18.105720 -8.532079 0.000016 -0.000011 3.006050 -4.999878 7.998771 0.000004 -12.170415 -181.290364 -2.893941 179.999991 -0.000005 -1.428994 155.173019 -3.270771 -1.183000 0.000002 -0.000004 0.773672 73.050786 7.633821 -0.336327 25.456953 -7.355613 0.000000 -11.166932 175.057885 -1.364482 -0.000006 0.000010 -0.749559 -26.297026 1.517276 1.307667 -0.000003 -0.000000 -0.421232 74.765047 -5.803493 -4.999006 25.456960 7.355614 0.000000 
